<mxfile host="65bd71144e">
    <diagram id="FATwsxAdAPhjEUdxje0b" name="Page-1">
        <mxGraphModel dx="583" dy="404" grid="1" gridSize="10" guides="1" tooltips="1" connect="1" arrows="1" fold="1" page="1" pageScale="1" pageWidth="850" pageHeight="1100" math="0" shadow="0">
            <root>
                <mxCell id="0"/>
                <mxCell id="1" parent="0"/>
                <mxCell id="2" value="" style="pointerEvents=1;verticalLabelPosition=bottom;shadow=0;dashed=0;align=center;html=1;verticalAlign=top;shape=mxgraph.electrical.resistors.resistor_2;" parent="1" vertex="1">
                    <mxGeometry x="200" y="230" width="100" height="20" as="geometry"/>
                </mxCell>
                <mxCell id="3" value="" style="pointerEvents=1;verticalLabelPosition=bottom;shadow=0;dashed=0;align=center;html=1;verticalAlign=top;shape=mxgraph.electrical.signal_sources.source;aspect=fixed;points=[[0.5,0,0],[1,0.5,0],[0.5,1,0],[0,0.5,0]];elSignalType=ac;" parent="1" vertex="1">
                    <mxGeometry x="130" y="320" width="60" height="60" as="geometry"/>
                </mxCell>
                <mxCell id="5" value="" style="endArrow=none;html=1;exitX=0;exitY=0.5;exitDx=0;exitDy=0;exitPerimeter=0;entryX=0;entryY=0.5;entryDx=0;entryDy=0;entryPerimeter=0;" parent="1" source="37" target="8" edge="1">
                    <mxGeometry width="50" height="50" relative="1" as="geometry">
                        <mxPoint x="1280" y="220" as="sourcePoint"/>
                        <mxPoint x="1330" y="170" as="targetPoint"/>
                        <Array as="points">
                            <mxPoint x="1320" y="240"/>
                        </Array>
                    </mxGeometry>
                </mxCell>
                <mxCell id="6" value="" style="endArrow=none;html=1;exitX=0.5;exitY=0;exitDx=0;exitDy=0;exitPerimeter=0;entryX=0;entryY=0.5;entryDx=0;entryDy=0;entryPerimeter=0;" parent="1" source="3" target="2" edge="1">
                    <mxGeometry width="50" height="50" relative="1" as="geometry">
                        <mxPoint x="70" y="220" as="sourcePoint"/>
                        <mxPoint x="120" y="170" as="targetPoint"/>
                        <Array as="points">
                            <mxPoint x="160" y="240"/>
                        </Array>
                    </mxGeometry>
                </mxCell>
                <mxCell id="7" value="Vs" style="text;html=1;align=center;verticalAlign=middle;resizable=0;points=[];autosize=1;strokeColor=none;fillColor=none;" parent="1" vertex="1">
                    <mxGeometry x="90" y="335" width="40" height="30" as="geometry"/>
                </mxCell>
                <mxCell id="8" value="" style="pointerEvents=1;verticalLabelPosition=bottom;shadow=0;dashed=0;align=center;html=1;verticalAlign=top;shape=mxgraph.electrical.resistors.resistor_2;direction=south;" parent="1" vertex="1">
                    <mxGeometry x="1310" y="300" width="20" height="100" as="geometry"/>
                </mxCell>
                <mxCell id="9" value="" style="pointerEvents=1;verticalLabelPosition=bottom;shadow=0;dashed=0;align=center;html=1;verticalAlign=top;shape=mxgraph.electrical.resistors.resistor_2;direction=south;" parent="1" vertex="1">
                    <mxGeometry x="390" y="280" width="20" height="100" as="geometry"/>
                </mxCell>
                <mxCell id="15" value="" style="group" parent="1" vertex="1" connectable="0">
                    <mxGeometry x="440" y="290" width="60" height="60" as="geometry"/>
                </mxCell>
                <mxCell id="10" value="" style="pointerEvents=1;verticalLabelPosition=bottom;shadow=0;dashed=0;align=center;html=1;verticalAlign=top;shape=mxgraph.electrical.signal_sources.source;aspect=fixed;points=[[0.5,0,0],[1,0.5,0],[0.5,1,0],[0,0.5,0]];elSignalType=none;elSourceType=dependent;" parent="15" vertex="1">
                    <mxGeometry width="60" height="60" as="geometry"/>
                </mxCell>
                <mxCell id="12" value="" style="shape=cross;whiteSpace=wrap;html=1;size=0;" parent="15" vertex="1">
                    <mxGeometry x="25" y="10" width="10" height="10" as="geometry"/>
                </mxCell>
                <mxCell id="14" value="" style="endArrow=none;html=1;" parent="15" edge="1">
                    <mxGeometry width="50" height="50" relative="1" as="geometry">
                        <mxPoint x="25" y="45" as="sourcePoint"/>
                        <mxPoint x="35" y="45" as="targetPoint"/>
                    </mxGeometry>
                </mxCell>
                <mxCell id="57" value="" style="shape=cross;whiteSpace=wrap;html=1;size=0;" parent="15" vertex="1">
                    <mxGeometry x="-85" y="-40" width="10" height="10" as="geometry"/>
                </mxCell>
                <mxCell id="78" value="" style="shape=cross;whiteSpace=wrap;html=1;size=0;" parent="15" vertex="1">
                    <mxGeometry x="775" y="-45.34" width="10" height="10" as="geometry"/>
                </mxCell>
                <mxCell id="16" value="" style="pointerEvents=1;verticalLabelPosition=bottom;shadow=0;dashed=0;align=center;html=1;verticalAlign=top;shape=mxgraph.electrical.resistors.resistor_2;direction=west;" parent="1" vertex="1">
                    <mxGeometry x="510" y="230" width="100" height="20" as="geometry"/>
                </mxCell>
                <mxCell id="18" value="" style="endArrow=none;html=1;exitX=1;exitY=0.5;exitDx=0;exitDy=0;exitPerimeter=0;entryX=0;entryY=0.5;entryDx=0;entryDy=0;entryPerimeter=0;" parent="1" source="2" target="9" edge="1">
                    <mxGeometry width="50" height="50" relative="1" as="geometry">
                        <mxPoint x="370" y="210" as="sourcePoint"/>
                        <mxPoint x="420" y="160" as="targetPoint"/>
                        <Array as="points">
                            <mxPoint x="400" y="240"/>
                        </Array>
                    </mxGeometry>
                </mxCell>
                <mxCell id="19" value="" style="endArrow=none;html=1;exitX=0.5;exitY=0;exitDx=0;exitDy=0;exitPerimeter=0;entryX=1;entryY=0.5;entryDx=0;entryDy=0;entryPerimeter=0;" parent="1" source="10" target="16" edge="1">
                    <mxGeometry width="50" height="50" relative="1" as="geometry">
                        <mxPoint x="320" y="210" as="sourcePoint"/>
                        <mxPoint x="370" y="160" as="targetPoint"/>
                        <Array as="points">
                            <mxPoint x="470" y="240"/>
                        </Array>
                    </mxGeometry>
                </mxCell>
                <mxCell id="20" value="" style="endArrow=none;html=1;entryX=0.5;entryY=1;entryDx=0;entryDy=0;entryPerimeter=0;" parent="1" target="10" edge="1">
                    <mxGeometry width="50" height="50" relative="1" as="geometry">
                        <mxPoint x="470" y="440" as="sourcePoint"/>
                        <mxPoint x="490" y="360" as="targetPoint"/>
                    </mxGeometry>
                </mxCell>
                <mxCell id="21" value="" style="endArrow=none;html=1;entryX=1;entryY=0.5;entryDx=0;entryDy=0;entryPerimeter=0;" parent="1" target="9" edge="1">
                    <mxGeometry width="50" height="50" relative="1" as="geometry">
                        <mxPoint x="400" y="440" as="sourcePoint"/>
                        <mxPoint x="480" y="360" as="targetPoint"/>
                    </mxGeometry>
                </mxCell>
                <mxCell id="22" value="" style="pointerEvents=1;verticalLabelPosition=bottom;shadow=0;dashed=0;align=center;html=1;verticalAlign=top;shape=mxgraph.electrical.resistors.resistor_2;direction=south;" parent="1" vertex="1">
                    <mxGeometry x="700" y="280" width="20" height="100" as="geometry"/>
                </mxCell>
                <mxCell id="23" value="" style="group" parent="1" vertex="1" connectable="0">
                    <mxGeometry x="750" y="290" width="60" height="60" as="geometry"/>
                </mxCell>
                <mxCell id="24" value="" style="pointerEvents=1;verticalLabelPosition=bottom;shadow=0;dashed=0;align=center;html=1;verticalAlign=top;shape=mxgraph.electrical.signal_sources.source;aspect=fixed;points=[[0.5,0,0],[1,0.5,0],[0.5,1,0],[0,0.5,0]];elSignalType=none;elSourceType=dependent;" parent="23" vertex="1">
                    <mxGeometry width="60" height="60" as="geometry"/>
                </mxCell>
                <mxCell id="25" value="" style="shape=cross;whiteSpace=wrap;html=1;size=0;" parent="23" vertex="1">
                    <mxGeometry x="25" y="10" width="10" height="10" as="geometry"/>
                </mxCell>
                <mxCell id="26" value="" style="endArrow=none;html=1;" parent="23" edge="1">
                    <mxGeometry width="50" height="50" relative="1" as="geometry">
                        <mxPoint x="25" y="45" as="sourcePoint"/>
                        <mxPoint x="35" y="45" as="targetPoint"/>
                    </mxGeometry>
                </mxCell>
                <mxCell id="27" value="" style="pointerEvents=1;verticalLabelPosition=bottom;shadow=0;dashed=0;align=center;html=1;verticalAlign=top;shape=mxgraph.electrical.resistors.resistor_2;direction=west;" parent="1" vertex="1">
                    <mxGeometry x="820" y="230" width="100" height="20" as="geometry"/>
                </mxCell>
                <mxCell id="28" value="" style="endArrow=none;html=1;exitX=1;exitY=0.5;exitDx=0;exitDy=0;exitPerimeter=0;entryX=0;entryY=0.5;entryDx=0;entryDy=0;entryPerimeter=0;" parent="1" target="22" edge="1">
                    <mxGeometry width="50" height="50" relative="1" as="geometry">
                        <mxPoint x="610" y="240" as="sourcePoint"/>
                        <mxPoint x="730" y="160" as="targetPoint"/>
                        <Array as="points">
                            <mxPoint x="710" y="240"/>
                        </Array>
                    </mxGeometry>
                </mxCell>
                <mxCell id="29" value="" style="endArrow=none;html=1;exitX=0.5;exitY=0;exitDx=0;exitDy=0;exitPerimeter=0;entryX=1;entryY=0.5;entryDx=0;entryDy=0;entryPerimeter=0;" parent="1" source="24" target="27" edge="1">
                    <mxGeometry width="50" height="50" relative="1" as="geometry">
                        <mxPoint x="630" y="210" as="sourcePoint"/>
                        <mxPoint x="680" y="160" as="targetPoint"/>
                        <Array as="points">
                            <mxPoint x="780" y="240"/>
                        </Array>
                    </mxGeometry>
                </mxCell>
                <mxCell id="30" value="" style="endArrow=none;html=1;entryX=0.5;entryY=1;entryDx=0;entryDy=0;entryPerimeter=0;" parent="1" target="24" edge="1">
                    <mxGeometry width="50" height="50" relative="1" as="geometry">
                        <mxPoint x="780" y="440" as="sourcePoint"/>
                        <mxPoint x="800" y="360" as="targetPoint"/>
                    </mxGeometry>
                </mxCell>
                <mxCell id="31" value="" style="endArrow=none;html=1;entryX=1;entryY=0.5;entryDx=0;entryDy=0;entryPerimeter=0;" parent="1" target="22" edge="1">
                    <mxGeometry width="50" height="50" relative="1" as="geometry">
                        <mxPoint x="710" y="440" as="sourcePoint"/>
                        <mxPoint x="790" y="360" as="targetPoint"/>
                    </mxGeometry>
                </mxCell>
                <mxCell id="32" value="" style="pointerEvents=1;verticalLabelPosition=bottom;shadow=0;dashed=0;align=center;html=1;verticalAlign=top;shape=mxgraph.electrical.resistors.resistor_2;direction=south;" parent="1" vertex="1">
                    <mxGeometry x="1010" y="280" width="20" height="100" as="geometry"/>
                </mxCell>
                <mxCell id="33" value="" style="group" parent="1" vertex="1" connectable="0">
                    <mxGeometry x="1060" y="290" width="60" height="60" as="geometry"/>
                </mxCell>
                <mxCell id="34" value="" style="pointerEvents=1;verticalLabelPosition=bottom;shadow=0;dashed=0;align=center;html=1;verticalAlign=top;shape=mxgraph.electrical.signal_sources.source;aspect=fixed;points=[[0.5,0,0],[1,0.5,0],[0.5,1,0],[0,0.5,0]];elSignalType=none;elSourceType=dependent;" parent="33" vertex="1">
                    <mxGeometry width="60" height="60" as="geometry"/>
                </mxCell>
                <mxCell id="35" value="" style="shape=cross;whiteSpace=wrap;html=1;size=0;" parent="33" vertex="1">
                    <mxGeometry x="25" y="10" width="10" height="10" as="geometry"/>
                </mxCell>
                <mxCell id="36" value="" style="endArrow=none;html=1;" parent="33" edge="1">
                    <mxGeometry width="50" height="50" relative="1" as="geometry">
                        <mxPoint x="25" y="45" as="sourcePoint"/>
                        <mxPoint x="35" y="45" as="targetPoint"/>
                    </mxGeometry>
                </mxCell>
                <mxCell id="37" value="" style="pointerEvents=1;verticalLabelPosition=bottom;shadow=0;dashed=0;align=center;html=1;verticalAlign=top;shape=mxgraph.electrical.resistors.resistor_2;direction=west;" parent="1" vertex="1">
                    <mxGeometry x="1130" y="230" width="100" height="20" as="geometry"/>
                </mxCell>
                <mxCell id="38" value="" style="endArrow=none;html=1;exitX=1;exitY=0.5;exitDx=0;exitDy=0;exitPerimeter=0;entryX=0;entryY=0.5;entryDx=0;entryDy=0;entryPerimeter=0;" parent="1" target="32" edge="1">
                    <mxGeometry width="50" height="50" relative="1" as="geometry">
                        <mxPoint x="920" y="240" as="sourcePoint"/>
                        <mxPoint x="1040" y="160" as="targetPoint"/>
                        <Array as="points">
                            <mxPoint x="1020" y="240"/>
                        </Array>
                    </mxGeometry>
                </mxCell>
                <mxCell id="39" value="" style="endArrow=none;html=1;exitX=0.5;exitY=0;exitDx=0;exitDy=0;exitPerimeter=0;entryX=1;entryY=0.5;entryDx=0;entryDy=0;entryPerimeter=0;" parent="1" source="34" target="37" edge="1">
                    <mxGeometry width="50" height="50" relative="1" as="geometry">
                        <mxPoint x="940" y="210" as="sourcePoint"/>
                        <mxPoint x="990" y="160" as="targetPoint"/>
                        <Array as="points">
                            <mxPoint x="1090" y="240"/>
                        </Array>
                    </mxGeometry>
                </mxCell>
                <mxCell id="40" value="" style="endArrow=none;html=1;entryX=0.5;entryY=1;entryDx=0;entryDy=0;entryPerimeter=0;" parent="1" target="34" edge="1">
                    <mxGeometry width="50" height="50" relative="1" as="geometry">
                        <mxPoint x="1090" y="440" as="sourcePoint"/>
                        <mxPoint x="1110" y="360" as="targetPoint"/>
                    </mxGeometry>
                </mxCell>
                <mxCell id="41" value="" style="endArrow=none;html=1;entryX=1;entryY=0.5;entryDx=0;entryDy=0;entryPerimeter=0;" parent="1" target="32" edge="1">
                    <mxGeometry width="50" height="50" relative="1" as="geometry">
                        <mxPoint x="1020" y="440" as="sourcePoint"/>
                        <mxPoint x="1100" y="360" as="targetPoint"/>
                    </mxGeometry>
                </mxCell>
                <mxCell id="42" value="" style="endArrow=none;html=1;exitX=0.5;exitY=1;exitDx=0;exitDy=0;exitPerimeter=0;entryX=1;entryY=0.5;entryDx=0;entryDy=0;entryPerimeter=0;" parent="1" source="3" target="8" edge="1">
                    <mxGeometry width="50" height="50" relative="1" as="geometry">
                        <mxPoint x="410" y="400" as="sourcePoint"/>
                        <mxPoint x="460" y="350" as="targetPoint"/>
                        <Array as="points">
                            <mxPoint x="160" y="440"/>
                            <mxPoint x="1320" y="440"/>
                        </Array>
                    </mxGeometry>
                </mxCell>
                <mxCell id="43" value="Rs" style="text;html=1;align=center;verticalAlign=middle;resizable=0;points=[];autosize=1;strokeColor=none;fillColor=none;" parent="1" vertex="1">
                    <mxGeometry x="230" y="200" width="40" height="30" as="geometry"/>
                </mxCell>
                <mxCell id="44" value="" style="endArrow=none;dashed=1;html=1;dashPattern=1 3;strokeWidth=2;" parent="1" edge="1">
                    <mxGeometry width="50" height="50" relative="1" as="geometry">
                        <mxPoint x="300" y="480" as="sourcePoint"/>
                        <mxPoint x="300" y="200" as="targetPoint"/>
                    </mxGeometry>
                </mxCell>
                <mxCell id="45" value="" style="endArrow=none;dashed=1;html=1;dashPattern=1 3;strokeWidth=2;" parent="1" edge="1">
                    <mxGeometry width="50" height="50" relative="1" as="geometry">
                        <mxPoint x="620" y="480" as="sourcePoint"/>
                        <mxPoint x="620" y="200" as="targetPoint"/>
                    </mxGeometry>
                </mxCell>
                <mxCell id="46" value="" style="endArrow=none;dashed=1;html=1;dashPattern=1 3;strokeWidth=2;" parent="1" edge="1">
                    <mxGeometry width="50" height="50" relative="1" as="geometry">
                        <mxPoint x="660" y="480" as="sourcePoint"/>
                        <mxPoint x="660" y="200" as="targetPoint"/>
                    </mxGeometry>
                </mxCell>
                <mxCell id="48" value="" style="endArrow=none;dashed=1;html=1;dashPattern=1 3;strokeWidth=2;" parent="1" edge="1">
                    <mxGeometry width="50" height="50" relative="1" as="geometry">
                        <mxPoint x="930" y="480" as="sourcePoint"/>
                        <mxPoint x="930" y="200" as="targetPoint"/>
                    </mxGeometry>
                </mxCell>
                <mxCell id="49" value="" style="endArrow=none;dashed=1;html=1;dashPattern=1 3;strokeWidth=2;" parent="1" edge="1">
                    <mxGeometry width="50" height="50" relative="1" as="geometry">
                        <mxPoint x="970" y="480" as="sourcePoint"/>
                        <mxPoint x="970" y="200" as="targetPoint"/>
                    </mxGeometry>
                </mxCell>
                <mxCell id="50" value="" style="endArrow=none;dashed=1;html=1;dashPattern=1 3;strokeWidth=2;" parent="1" edge="1">
                    <mxGeometry width="50" height="50" relative="1" as="geometry">
                        <mxPoint x="1240" y="480" as="sourcePoint"/>
                        <mxPoint x="1240" y="200" as="targetPoint"/>
                    </mxGeometry>
                </mxCell>
                <mxCell id="51" value="&lt;font style=&quot;font-size: 20px;&quot;&gt;Stage 1&lt;/font&gt;" style="text;html=1;align=center;verticalAlign=middle;resizable=0;points=[];autosize=1;strokeColor=none;fillColor=none;" parent="1" vertex="1">
                    <mxGeometry x="440" y="450" width="90" height="40" as="geometry"/>
                </mxCell>
                <mxCell id="52" value="&lt;font style=&quot;font-size: 20px;&quot;&gt;Stage 2&lt;/font&gt;" style="text;html=1;align=center;verticalAlign=middle;resizable=0;points=[];autosize=1;strokeColor=none;fillColor=none;" parent="1" vertex="1">
                    <mxGeometry x="710" y="450" width="90" height="40" as="geometry"/>
                </mxCell>
                <mxCell id="53" value="&lt;font style=&quot;font-size: 20px;&quot;&gt;Stage 3&lt;/font&gt;" style="text;html=1;align=center;verticalAlign=middle;resizable=0;points=[];autosize=1;strokeColor=none;fillColor=none;" parent="1" vertex="1">
                    <mxGeometry x="1050" y="450" width="90" height="40" as="geometry"/>
                </mxCell>
                <mxCell id="54" value="Rin1" style="text;html=1;align=center;verticalAlign=middle;resizable=0;points=[];autosize=1;strokeColor=none;fillColor=none;" parent="1" vertex="1">
                    <mxGeometry x="390" y="350" width="50" height="30" as="geometry"/>
                </mxCell>
                <mxCell id="55" value="Rout1" style="text;html=1;align=center;verticalAlign=middle;resizable=0;points=[];autosize=1;strokeColor=none;fillColor=none;" parent="1" vertex="1">
                    <mxGeometry x="525" y="200" width="60" height="30" as="geometry"/>
                </mxCell>
                <mxCell id="56" value="Av0.Vi1" style="text;html=1;align=center;verticalAlign=middle;resizable=0;points=[];autosize=1;strokeColor=none;fillColor=none;" parent="1" vertex="1">
                    <mxGeometry x="470" y="335" width="60" height="30" as="geometry"/>
                </mxCell>
                <mxCell id="58" value="vi" style="text;html=1;align=center;verticalAlign=middle;resizable=0;points=[];autosize=1;strokeColor=none;fillColor=none;" parent="1" vertex="1">
                    <mxGeometry x="345" y="320" width="30" height="30" as="geometry"/>
                </mxCell>
                <mxCell id="59" value="" style="endArrow=none;html=1;" parent="1" edge="1">
                    <mxGeometry width="50" height="50" relative="1" as="geometry">
                        <mxPoint x="355" y="420" as="sourcePoint"/>
                        <mxPoint x="365" y="420" as="targetPoint"/>
                    </mxGeometry>
                </mxCell>
                <mxCell id="63" value="Rin2" style="text;html=1;align=center;verticalAlign=middle;resizable=0;points=[];autosize=1;strokeColor=none;fillColor=none;" parent="1" vertex="1">
                    <mxGeometry x="710" y="350" width="50" height="30" as="geometry"/>
                </mxCell>
                <mxCell id="64" value="Av0.Vi2" style="text;html=1;align=center;verticalAlign=middle;resizable=0;points=[];autosize=1;strokeColor=none;fillColor=none;" parent="1" vertex="1">
                    <mxGeometry x="790" y="335" width="60" height="30" as="geometry"/>
                </mxCell>
                <mxCell id="65" value="Rout2" style="text;html=1;align=center;verticalAlign=middle;resizable=0;points=[];autosize=1;strokeColor=none;fillColor=none;" parent="1" vertex="1">
                    <mxGeometry x="845" y="200" width="60" height="30" as="geometry"/>
                </mxCell>
                <mxCell id="69" value="Rin3" style="text;html=1;align=center;verticalAlign=middle;resizable=0;points=[];autosize=1;strokeColor=none;fillColor=none;" parent="1" vertex="1">
                    <mxGeometry x="1017.5" y="350" width="50" height="30" as="geometry"/>
                </mxCell>
                <mxCell id="70" value="Av0.Vi3" style="text;html=1;align=center;verticalAlign=middle;resizable=0;points=[];autosize=1;strokeColor=none;fillColor=none;" parent="1" vertex="1">
                    <mxGeometry x="1097.5" y="335" width="60" height="30" as="geometry"/>
                </mxCell>
                <mxCell id="71" value="Rout3" style="text;html=1;align=center;verticalAlign=middle;resizable=0;points=[];autosize=1;strokeColor=none;fillColor=none;" parent="1" vertex="1">
                    <mxGeometry x="1152.5" y="200" width="60" height="30" as="geometry"/>
                </mxCell>
                <mxCell id="79" value="vo" style="text;html=1;align=center;verticalAlign=middle;resizable=0;points=[];autosize=1;strokeColor=none;fillColor=none;" parent="1" vertex="1">
                    <mxGeometry x="1200" y="314.66" width="40" height="30" as="geometry"/>
                </mxCell>
                <mxCell id="80" value="" style="endArrow=none;html=1;" parent="1" edge="1">
                    <mxGeometry width="50" height="50" relative="1" as="geometry">
                        <mxPoint x="1215" y="414.66" as="sourcePoint"/>
                        <mxPoint x="1225" y="414.66" as="targetPoint"/>
                    </mxGeometry>
                </mxCell>
                <mxCell id="81" value="RL" style="text;html=1;align=center;verticalAlign=middle;resizable=0;points=[];autosize=1;strokeColor=none;fillColor=none;" parent="1" vertex="1">
                    <mxGeometry x="1330" y="344.66" width="40" height="30" as="geometry"/>
                </mxCell>
                <mxCell id="82" value="" style="shape=flexArrow;endArrow=classic;html=1;width=3.888888888888889;endSize=1.4972067039106147;endWidth=6.828057107386718;" edge="1" parent="1">
                    <mxGeometry width="50" height="50" relative="1" as="geometry">
                        <mxPoint x="220" y="532" as="sourcePoint"/>
                        <mxPoint x="340" y="400" as="targetPoint"/>
                        <Array as="points">
                            <mxPoint x="220" y="402"/>
                        </Array>
                    </mxGeometry>
                </mxCell>
                <mxCell id="86" value="Rin" style="text;html=1;align=center;verticalAlign=middle;resizable=0;points=[];autosize=1;strokeColor=none;fillColor=none;" vertex="1" parent="1">
                    <mxGeometry x="200" y="535" width="40" height="30" as="geometry"/>
                </mxCell>
                <mxCell id="87" value="" style="shape=flexArrow;endArrow=classic;html=1;width=3.888888888888889;endSize=1.4972067039106147;endWidth=6.828057107386718;" edge="1" parent="1">
                    <mxGeometry width="50" height="50" relative="1" as="geometry">
                        <mxPoint x="1290" y="538.36" as="sourcePoint"/>
                        <mxPoint x="1200" y="400" as="targetPoint"/>
                        <Array as="points">
                            <mxPoint x="1290" y="400.36"/>
                        </Array>
                    </mxGeometry>
                </mxCell>
                <mxCell id="88" value="Rout" style="text;html=1;align=center;verticalAlign=middle;resizable=0;points=[];autosize=1;strokeColor=none;fillColor=none;" vertex="1" parent="1">
                    <mxGeometry x="1266" y="537" width="50" height="30" as="geometry"/>
                </mxCell>
            </root>
        </mxGraphModel>
    </diagram>
</mxfile>